#!OML:ASF E:\acrobat2\Project_11_07_03\Capture day 1\Session 1\Acrobat.ASF
:FULLY-SPECIFIED
:DEGREES
629
root 12.2748 23.159 20.1299 346.736 -10.4566 -0.500909
lowerback -6.73839 -0.0942782 2.03268
upperback -6.76176 -0.252771 -1.14819
thorax -3.2345 -0.248513 -2.33506
lowerneck -4.47602 -1.74783 -0.995789
upperneck 2.76062 -2.51358 5.98362
head 1.74052 -1.13709 2.00099
rclavicle 6.36111e-015 -2.82274e-014
rhumerus 90.3763 -38.1777 -52.0972
rradius 29.2614
rwrist -5.20719
rhand -32.272 -25.3579
rfingers 7.12502
rthumb -5.51138 -55.2662
lclavicle 6.36111e-015 -2.82274e-014
lhumerus 89.0416 32.0411 41.285
lradius 26.9197
lwrist 2.18183
lhand -32.9698 -39.2374
lfingers 7.12502
lthumb -6.1851 -9.34773
rfemur 12.3994 -0.690589 12.4545
rtibia 17.4308
rfoot 2.84448 -18.3857
rtoes 26.0832
lfemur 11.25 1.47745 -7.93675
ltibia 21.9801
lfoot -3.9845 14.2284
ltoes 10.3676
630
root 12.2722 23.2264 20.1765 347.336 -10.2121 -0.608884
lowerback -6.57085 -0.108912 2.00096
upperback -6.73452 -0.268249 -1.18953
thorax -3.29987 -0.256127 -2.35997
lowerneck -4.13268 -1.77769 -1.10591
upperneck 2.73797 -2.54239 5.94469
head 1.67418 -1.15953 2.008
rclavicle -1.88845e-014 1.5704e-014
rhumerus 89.8759 -38.2035 -51.5634
rradius 29.3645
rwrist -5.64688
rhand -32.2368 -25.2941
rfingers 7.12502
rthumb -5.47737 -55.2033
lclavicle -1.88845e-014 1.5704e-014
lhumerus 89.1385 31.9613 41.266
lradius 27.0122
lwrist 2.14914
lhand -33.4601 -39.6857
lfingers 7.12502
lthumb -6.6584 -9.81037
rfemur 12.0257 -0.588363 12.6688
rtibia 17.1699
rfoot 2.78109 -18.5899
rtoes 25.7878
lfemur 10.5631 1.39225 -8.07414
ltibia 22.1066
lfoot -4.35036 14.1887
ltoes 8.99461
631
root 12.2704 23.2854 20.223 347.911 -9.94843 -0.688417
lowerback -6.4087 -0.107073 1.96395
upperback -6.70151 -0.262323 -1.24973
thorax -3.35516 -0.253098 -2.40071
lowerneck -3.75424 -1.81402 -1.2668
upperneck 2.70372 -2.58079 5.98856
head 1.60134 -1.18638 2.05134
rclavicle 1.51076e-014 2.62396e-014
rhumerus 89.2633 -38.2962 -50.8718
rradius 29.4965
rwrist -6.15348
rhand -32.1811 -25.2912
rfingers 7.12502
rthumb -5.42358 -55.2018
lclavicle 1.51076e-014 2.62396e-014
lhumerus 89.179 31.8273 41.213
lradius 27.094
lwrist 2.09201
lhand -34.1463 -40.2449
lfingers 7.12502
lthumb -7.32075 -10.3915
rfemur 11.5983 -0.51482 12.8388
rtibia 17.088
rfoot 2.54871 -18.5656
rtoes 25.3336
lfemur 9.87874 1.2804 -8.26203
ltibia 22.2442
lfoot -4.80403 14.015
ltoes 7.45785
632
root 12.2692 23.3355 20.2704 348.464 -9.6886 -0.752773
lowerback -6.25638 -0.0927492 1.9387
upperback -6.64801 -0.240775 -1.32267
thorax -3.38287 -0.242474 -2.46085
lowerneck -3.45403 -1.84378 -1.41718
upperneck 2.7277 -2.61632 6.05778
head 1.56167 -1.20904 2.10143
rclavicle -2.14687e-014 -1.70955e-014
rhumerus 88.7143 -38.3685 -50.2989
rradius 29.6273
rwrist -6.51995
rhand -32.147 -25.3144
rfingers 7.12502
rthumb -5.39063 -55.2259
lclavicle -2.14687e-014 -1.70955e-014
lhumerus 89.1832 31.6713 41.1417
lradius 27.1792
lwrist 2.03777
lhand -35.0162 -40.9344
lfingers 7.12502
lthumb -8.1604 -11.112
rfemur 11.1429 -0.430073 12.9993
rtibia 17.1354
rfoot 2.12241 -18.372
rtoes 24.9206
lfemur 9.26581 1.16998 -8.46533
ltibia 22.2585
lfoot -5.33286 13.7242
ltoes 5.95208
633
root 12.2681 23.3767 20.3197 349.003 -9.4514 -0.813097
lowerback -6.13936 -0.0645382 1.93562
upperback -6.57072 -0.202179 -1.39958
thorax -3.36519 -0.223488 -2.53719
lowerneck -3.32811 -1.88076 -1.44443
upperneck 2.91699 -2.67146 5.99007
head 1.60153 -1.23722 2.0839
rclavicle 1.17283e-014 5.1684e-015
rhumerus 88.1594 -38.4843 -49.692
rradius 29.7735
rwrist -6.91479
rhand -32.0776 -25.4033
rfingers 7.12502
rthumb -5.32362 -55.3164
lclavicle 1.17283e-014 5.1684e-015
lhumerus 89.1595 31.5059 41.0578
lradius 27.2854
lwrist 2.08342
lhand -36.0128 -41.7749
lfingers 7.12502
lthumb -9.12219 -11.9922
rfemur 10.6886 -0.297794 13.1757
rtibia 17.2375
rfoot 1.49861 -18.0798
rtoes 24.619
lfemur 8.78141 1.08197 -8.6526
ltibia 22.0218
lfoot -5.95951 13.303
ltoes 4.61408
634
root 12.2671 23.4082 20.3712 349.532 -9.24487 -0.858058
lowerback -6.07649 -0.0260238 1.94257
upperback -6.45856 -0.151006 -1.48239
thorax -3.2801 -0.197455 -2.62506
lowerneck -3.35423 -1.92364 -1.36405
upperneck 3.20875 -2.74011 5.80902
head 1.6973 -1.26904 2.00922
rclavicle 9.54166e-015 -1.47101e-014
rhumerus 87.7709 -38.5392 -49.3927
rradius 29.9652
rwrist -7.13556
rhand -32.0381 -25.5996
rfingers 7.12502
rthumb -5.2855 -55.5137
lclavicle 9.54166e-015 -1.47101e-014
lhumerus 89.1222 31.3675 40.9425
lradius 27.4302
lwrist 2.3322
lhand -37.0485 -42.8698
lfingers 7.12502
lthumb -10.1214 -13.1333
rfemur 10.2677 -0.105959 13.3554
rtibia 17.3184
rfoot 0.675016 -17.7386
rtoes 24.4519
lfemur 8.46054 1.02536 -8.82535
ltibia 21.4476
lfoot -6.69772 12.7147
ltoes 3.28479
635
root 12.266 23.43 20.4251 350.044 -9.06379 -0.858961
lowerback -6.04052 0.014042 1.92147
upperback -6.33423 -0.0972289 -1.57052
thorax -3.16687 -0.168569 -2.70254
lowerneck -3.41927 -1.95836 -1.24754
upperneck 3.49277 -2.79743 5.60095
head 1.79578 -1.29499 1.91945
rclavicle 2.36554e-014 3.33958e-014
rhumerus 87.4574 -38.5723 -49.1966
rradius 30.2087
rwrist -7.42475
rhand -31.9646 -25.8441
rfingers 7.12502
rthumb -5.21452 -55.76
lclavicle 2.36554e-014 3.33958e-014
lhumerus 89.0154 31.2585 40.7425
lradius 27.6329
lwrist 2.82254
lhand -38.0821 -44.3264
lfingers 7.12502
lthumb -11.1185 -14.6409
rfemur 9.91892 0.108499 13.4892
rtibia 17.3132
rfoot -0.317332 -17.3557
rtoes 24.2115
lfemur 8.31969 0.984358 -9.02142
ltibia 20.4828
lfoot -7.49604 11.9501
ltoes 1.65143
636
root 12.2653 23.4421 20.4813 350.545 -8.8845 -0.790867
lowerback -6.00966 0.0435091 1.82725
upperback -6.22537 -0.0551413 -1.65847
thorax -3.06724 -0.143081 -2.73901
lowerneck -3.54361 -1.99444 -1.09219
upperneck 3.83405 -2.85758 5.32492
head 1.92135 -1.32177 1.80058
rclavicle -6.16232e-015 7.95139e-015
rhumerus 87.1801 -38.5341 -49.0929
rradius 30.5365
rwrist -7.8107
rhand -31.8926 -26.1896
rfingers 7.12502
rthumb -5.14507 -56.1071
lclavicle -6.16232e-015 7.95139e-015
lhumerus 88.8112 31.1498 40.4849
lradius 27.9037
lwrist 3.48142
lhand -39.1054 -46.1002
lfingers 7.12502
lthumb -12.1053 -16.4704
rfemur 9.68035 0.323036 13.5306
rtibia 17.1194
rfoot -1.4382 -16.9775
rtoes 23.7448
lfemur 8.34784 0.896649 -9.29452
ltibia 19.0997
lfoot -8.30873 11.0425
ltoes -0.336132
637
root 12.2646 23.4445 20.5398 351.047 -8.69327 -0.661164
lowerback -5.98707 0.0594758 1.65585
upperback -6.13264 -0.0283538 -1.74163
thorax -2.9805 -0.122707 -2.72752
lowerneck -3.67709 -2.02923 -0.988363
upperneck 4.19095 -2.91405 5.07088
head 2.05556 -1.34709 1.69831
rclavicle -1.2921e-014 -1.35174e-014
rhumerus 86.8806 -38.4694 -48.9639
rradius 30.9508
rwrist -8.38727
rhand -31.7597 -26.4993
rfingers 7.12502
rthumb -5.01668 -56.4199
lclavicle -1.2921e-014 -1.35174e-014
lhumerus 88.5582 31.0458 40.225
lradius 28.2359
lwrist 4.21128
lhand -40.1462 -47.9959
lfingers 7.12502
lthumb -13.1087 -18.4279
rfemur 9.57222 0.519493 13.4828
rtibia 16.6685
rfoot -2.63497 -16.6381
rtoes 22.9217
lfemur 8.50993 0.699328 -9.65804
ltibia 17.3224
lfoot -9.09567 10.0406
ltoes -2.5524
638
root 12.2636 23.4374 20.6014 351.566 -8.48008 -0.50103
lowerback -5.97843 0.0639277 1.43736
upperback -6.0741 -0.0153781 -1.81613
thorax -2.92253 -0.108246 -2.68108
lowerneck -3.72594 -2.05393 -0.972342
upperneck 4.48709 -2.95239 4.9008
head 2.15832 -1.36527 1.63969
rclavicle 1.45113e-014 -1.19271e-014
rhumerus 86.5649 -38.3583 -48.8161
rradius 31.4064
rwrist -9.09277
rhand -31.5908 -26.7192
rfingers 7.12502
rthumb -4.85358 -56.6436
lclavicle 1.45113e-014 -1.19271e-014
lhumerus 88.2085 30.9769 39.8236
lradius 28.6215
lwrist 5.07182
lhand -41.2387 -49.8503
lfingers 7.12502
lthumb -14.1616 -20.353
rfemur 9.60829 0.707355 13.3867
rtibia 15.9166
rfoot -3.86663 -16.4009
rtoes 21.8439
lfemur 8.75825 0.353663 -10.0923
ltibia 15.2319
lfoot -9.75879 9.0223
ltoes -4.57371
639
root 12.263 23.4211 20.6665 352.112 -8.23103 -0.350719
lowerback -5.98533 0.0589013 1.22082
upperback -6.06318 -0.0152305 -1.87401
thorax -2.90653 -0.101033 -2.61911
lowerneck -3.61739 -2.07483 -1.07485
upperneck 4.68742 -2.97923 4.83265
head 2.2059 -1.38099 1.63608
rclavicle -1.39149e-014 4.37326e-015
rhumerus 86.2074 -38.2012 -48.6132
rradius 31.8914
rwrist -9.86902
rhand -31.4077 -26.8641
rfingers 7.12502
rthumb -4.67682 -56.7924
lclavicle -1.39149e-014 4.37326e-015
lhumerus 87.7019 30.9829 39.1389
lradius 29.0619
lwrist 6.19072
lhand -42.3345 -51.645
lfingers 7.12502
lthumb -15.2174 -22.2246
rfemur 9.7883 0.902693 13.2935
rtibia 14.8597
rfoot -5.09145 -16.3432
rtoes 20.8064
lfemur 9.04065 -0.151283 -10.5631
ltibia 12.9519
lfoot -10.234 8.11153
ltoes -5.8755
640
root 12.263 23.3951 20.7344 352.702 -7.93228 -0.266108
lowerback -5.99804 0.0344225 1.07049
upperback -6.0964 -0.0431784 -1.90509
thorax -2.93521 -0.110606 -2.56778
lowerneck -3.4181 -2.09029 -1.24582
upperneck 4.82191 -2.99528 4.82035
head 2.21787 -1.39341 1.66341
rclavicle -6.75868e-015 1.98785e-015
rhumerus 85.8855 -37.9672 -48.4665
rradius 32.3883
rwrist -10.5422
rhand -31.2385 -26.9517
rfingers 7.12502
rthumb -4.51346 -56.8836
lclavicle -6.75868e-015 1.98785e-015
lhumerus 87.1407 31.0156 38.369
lradius 29.5341
lwrist 7.38924
lhand -43.3676 -53.4715
lfingers 7.12502
lthumb -16.2123 -24.1294
rfemur 10.0775 1.11232 13.2803
rtibia 13.5656
rfoot -6.26145 -16.5205
rtoes 20.0431
lfemur 9.28499 -0.768074 -10.9954
ltibia 10.6563
lfoot -10.4706 7.47168
ltoes -5.87853
